<mxfile host="app.diagrams.net" agent="Mozilla/5.0 (Macintosh; Intel Mac OS X 10_15_7) AppleWebKit/537.36 (KHTML, like Gecko) Chrome/119.0.0.0 Safari/537.36" version="24.7.7">
  <diagram name="第 1 页" id="PGi5FgurnE2QDcM1tr_9">
    <mxGraphModel dx="2417" dy="2084" grid="1" gridSize="10" guides="1" tooltips="1" connect="1" arrows="1" fold="1" page="1" pageScale="1" pageWidth="827" pageHeight="1169" math="0" shadow="0">
      <root>
        <mxCell id="0" />
        <mxCell id="1" parent="0" />
        <mxCell id="dDpDXuMlu2zKfhhWI8P_-9" value="" style="edgeStyle=orthogonalEdgeStyle;rounded=0;orthogonalLoop=1;jettySize=auto;html=1;" edge="1" parent="1" source="dDpDXuMlu2zKfhhWI8P_-4" target="dDpDXuMlu2zKfhhWI8P_-5">
          <mxGeometry relative="1" as="geometry" />
        </mxCell>
        <mxCell id="dDpDXuMlu2zKfhhWI8P_-4" value="活动" style="rounded=0;whiteSpace=wrap;html=1;" vertex="1" parent="1">
          <mxGeometry x="140" y="160" width="120" height="50" as="geometry" />
        </mxCell>
        <mxCell id="dDpDXuMlu2zKfhhWI8P_-5" value="投放计划&lt;div&gt;（时间，人群）&lt;/div&gt;" style="rounded=0;whiteSpace=wrap;html=1;" vertex="1" parent="1">
          <mxGeometry x="340" y="160" width="176" height="50" as="geometry" />
        </mxCell>
        <mxCell id="dDpDXuMlu2zKfhhWI8P_-6" value="营销规则" style="rounded=0;whiteSpace=wrap;html=1;" vertex="1" parent="1">
          <mxGeometry x="140" y="230" width="90" height="50" as="geometry" />
        </mxCell>
        <mxCell id="dDpDXuMlu2zKfhhWI8P_-7" value="权益（券、积分）" style="rounded=0;whiteSpace=wrap;html=1;" vertex="1" parent="1">
          <mxGeometry x="140" y="300" width="90" height="50" as="geometry" />
        </mxCell>
        <mxCell id="dDpDXuMlu2zKfhhWI8P_-8" value="触达" style="rounded=0;whiteSpace=wrap;html=1;" vertex="1" parent="1">
          <mxGeometry x="140" y="370" width="90" height="50" as="geometry" />
        </mxCell>
        <mxCell id="dDpDXuMlu2zKfhhWI8P_-11" value="预算" style="rounded=0;whiteSpace=wrap;html=1;" vertex="1" parent="1">
          <mxGeometry x="40" y="300" width="90" height="50" as="geometry" />
        </mxCell>
        <mxCell id="dDpDXuMlu2zKfhhWI8P_-12" value="展示模板（渲染）" style="rounded=0;whiteSpace=wrap;html=1;" vertex="1" parent="1">
          <mxGeometry x="140" y="50" width="120" height="50" as="geometry" />
        </mxCell>
        <mxCell id="dDpDXuMlu2zKfhhWI8P_-13" value="" style="endArrow=none;html=1;rounded=0;" edge="1" parent="1">
          <mxGeometry width="50" height="50" relative="1" as="geometry">
            <mxPoint x="-150" y="140" as="sourcePoint" />
            <mxPoint x="810" y="140" as="targetPoint" />
          </mxGeometry>
        </mxCell>
        <mxCell id="dDpDXuMlu2zKfhhWI8P_-14" value="行为交互（点赞、浏览）" style="rounded=0;whiteSpace=wrap;html=1;" vertex="1" parent="1">
          <mxGeometry x="294" y="50" width="120" height="50" as="geometry" />
        </mxCell>
        <mxCell id="dDpDXuMlu2zKfhhWI8P_-15" value="用户端" style="text;html=1;align=center;verticalAlign=middle;resizable=0;points=[];autosize=1;strokeColor=none;fillColor=none;" vertex="1" parent="1">
          <mxGeometry x="10" y="60" width="60" height="30" as="geometry" />
        </mxCell>
        <mxCell id="dDpDXuMlu2zKfhhWI8P_-16" value="服务端" style="text;html=1;align=center;verticalAlign=middle;resizable=0;points=[];autosize=1;strokeColor=none;fillColor=none;" vertex="1" parent="1">
          <mxGeometry x="10" y="150" width="60" height="30" as="geometry" />
        </mxCell>
        <mxCell id="dDpDXuMlu2zKfhhWI8P_-17" value="运营端（活动配置、数据分析）" style="rounded=0;whiteSpace=wrap;html=1;" vertex="1" parent="1">
          <mxGeometry x="690" y="55" width="120" height="45" as="geometry" />
        </mxCell>
        <mxCell id="dDpDXuMlu2zKfhhWI8P_-18" value="" style="endArrow=none;html=1;rounded=0;" edge="1" parent="1">
          <mxGeometry width="50" height="50" relative="1" as="geometry">
            <mxPoint x="620" y="140" as="sourcePoint" />
            <mxPoint x="620" y="50" as="targetPoint" />
          </mxGeometry>
        </mxCell>
        <mxCell id="dDpDXuMlu2zKfhhWI8P_-35" value="" style="edgeStyle=orthogonalEdgeStyle;rounded=0;orthogonalLoop=1;jettySize=auto;html=1;" edge="1" parent="1" source="dDpDXuMlu2zKfhhWI8P_-20" target="dDpDXuMlu2zKfhhWI8P_-34">
          <mxGeometry relative="1" as="geometry" />
        </mxCell>
        <mxCell id="dDpDXuMlu2zKfhhWI8P_-37" value="" style="edgeStyle=orthogonalEdgeStyle;rounded=0;orthogonalLoop=1;jettySize=auto;html=1;" edge="1" parent="1" source="dDpDXuMlu2zKfhhWI8P_-20" target="dDpDXuMlu2zKfhhWI8P_-33">
          <mxGeometry relative="1" as="geometry">
            <mxPoint x="570" y="525" as="targetPoint" />
          </mxGeometry>
        </mxCell>
        <mxCell id="dDpDXuMlu2zKfhhWI8P_-20" value="交易行为数据中心" style="rounded=0;whiteSpace=wrap;html=1;" vertex="1" parent="1">
          <mxGeometry x="410" y="482" width="120" height="50" as="geometry" />
        </mxCell>
        <mxCell id="dDpDXuMlu2zKfhhWI8P_-21" value="" style="shape=curlyBracket;whiteSpace=wrap;html=1;rounded=1;flipH=1;labelPosition=right;verticalLabelPosition=middle;align=left;verticalAlign=middle;" vertex="1" parent="1">
          <mxGeometry x="200" y="480" width="20" height="240" as="geometry" />
        </mxCell>
        <mxCell id="dDpDXuMlu2zKfhhWI8P_-22" value="实时行为" style="text;html=1;align=center;verticalAlign=middle;resizable=0;points=[];autosize=1;strokeColor=none;fillColor=none;" vertex="1" parent="1">
          <mxGeometry x="110" y="502" width="70" height="30" as="geometry" />
        </mxCell>
        <mxCell id="dDpDXuMlu2zKfhhWI8P_-23" value="" style="shape=curlyBracket;whiteSpace=wrap;html=1;rounded=1;flipH=1;labelPosition=right;verticalLabelPosition=middle;align=left;verticalAlign=middle;" vertex="1" parent="1">
          <mxGeometry x="80" y="457" width="20" height="120" as="geometry" />
        </mxCell>
        <mxCell id="dDpDXuMlu2zKfhhWI8P_-24" value="订单" style="text;html=1;align=center;verticalAlign=middle;resizable=0;points=[];autosize=1;strokeColor=none;fillColor=none;" vertex="1" parent="1">
          <mxGeometry x="35" y="450" width="50" height="30" as="geometry" />
        </mxCell>
        <mxCell id="dDpDXuMlu2zKfhhWI8P_-25" value="社区交互" style="text;html=1;align=center;verticalAlign=middle;resizable=0;points=[];autosize=1;strokeColor=none;fillColor=none;" vertex="1" parent="1">
          <mxGeometry x="25" y="480" width="70" height="30" as="geometry" />
        </mxCell>
        <mxCell id="dDpDXuMlu2zKfhhWI8P_-26" value="ugc" style="text;html=1;align=center;verticalAlign=middle;resizable=0;points=[];autosize=1;strokeColor=none;fillColor=none;" vertex="1" parent="1">
          <mxGeometry x="40" y="510" width="40" height="30" as="geometry" />
        </mxCell>
        <mxCell id="dDpDXuMlu2zKfhhWI8P_-27" value="离线数据（bi用户画像）" style="text;html=1;align=center;verticalAlign=middle;resizable=0;points=[];autosize=1;strokeColor=none;fillColor=none;" vertex="1" parent="1">
          <mxGeometry x="60" y="607" width="150" height="30" as="geometry" />
        </mxCell>
        <mxCell id="dDpDXuMlu2zKfhhWI8P_-28" value="算法/广告的已有画像数据（交易关注的）" style="text;html=1;align=center;verticalAlign=middle;resizable=0;points=[];autosize=1;strokeColor=none;fillColor=none;" vertex="1" parent="1">
          <mxGeometry y="700" width="240" height="30" as="geometry" />
        </mxCell>
        <mxCell id="dDpDXuMlu2zKfhhWI8P_-29" value="flink" style="shape=tape;whiteSpace=wrap;html=1;" vertex="1" parent="1">
          <mxGeometry x="240" y="494.5" width="80" height="45" as="geometry" />
        </mxCell>
        <mxCell id="dDpDXuMlu2zKfhhWI8P_-30" value="hive" style="shape=tape;whiteSpace=wrap;html=1;" vertex="1" parent="1">
          <mxGeometry x="240" y="592" width="80" height="45" as="geometry" />
        </mxCell>
        <mxCell id="dDpDXuMlu2zKfhhWI8P_-40" value="" style="edgeStyle=orthogonalEdgeStyle;rounded=0;orthogonalLoop=1;jettySize=auto;html=1;" edge="1" parent="1" source="dDpDXuMlu2zKfhhWI8P_-33" target="dDpDXuMlu2zKfhhWI8P_-38">
          <mxGeometry relative="1" as="geometry">
            <mxPoint x="650" y="685" as="targetPoint" />
            <Array as="points">
              <mxPoint x="620" y="685" />
            </Array>
          </mxGeometry>
        </mxCell>
        <mxCell id="dDpDXuMlu2zKfhhWI8P_-33" value="redkv" style="shape=cylinder3;whiteSpace=wrap;html=1;boundedLbl=1;backgroundOutline=1;size=15;" vertex="1" parent="1">
          <mxGeometry x="480" y="650" width="90" height="70" as="geometry" />
        </mxCell>
        <mxCell id="dDpDXuMlu2zKfhhWI8P_-34" value="行为数据规则配置" style="shape=cylinder3;whiteSpace=wrap;html=1;boundedLbl=1;backgroundOutline=1;size=15;" vertex="1" parent="1">
          <mxGeometry x="370" y="650" width="90" height="70" as="geometry" />
        </mxCell>
        <mxCell id="dDpDXuMlu2zKfhhWI8P_-38" value="交易行为查询" style="rounded=0;whiteSpace=wrap;html=1;" vertex="1" parent="1">
          <mxGeometry x="560" y="480" width="120" height="50" as="geometry" />
        </mxCell>
        <mxCell id="dDpDXuMlu2zKfhhWI8P_-43" value="" style="edgeStyle=orthogonalEdgeStyle;rounded=0;orthogonalLoop=1;jettySize=auto;html=1;" edge="1" parent="1" source="dDpDXuMlu2zKfhhWI8P_-41" target="dDpDXuMlu2zKfhhWI8P_-42">
          <mxGeometry relative="1" as="geometry" />
        </mxCell>
        <mxCell id="dDpDXuMlu2zKfhhWI8P_-41" value="用户行为交互" style="shape=step;perimeter=stepPerimeter;whiteSpace=wrap;html=1;fixedSize=1;" vertex="1" parent="1">
          <mxGeometry x="-105" y="-60" width="120" height="60" as="geometry" />
        </mxCell>
        <mxCell id="dDpDXuMlu2zKfhhWI8P_-45" value="" style="edgeStyle=orthogonalEdgeStyle;rounded=0;orthogonalLoop=1;jettySize=auto;html=1;" edge="1" parent="1" source="dDpDXuMlu2zKfhhWI8P_-42" target="dDpDXuMlu2zKfhhWI8P_-44">
          <mxGeometry relative="1" as="geometry" />
        </mxCell>
        <mxCell id="dDpDXuMlu2zKfhhWI8P_-42" value="请求过滤" style="shape=step;perimeter=stepPerimeter;whiteSpace=wrap;html=1;fixedSize=1;" vertex="1" parent="1">
          <mxGeometry x="35" y="-60" width="120" height="60" as="geometry" />
        </mxCell>
        <mxCell id="dDpDXuMlu2zKfhhWI8P_-47" value="" style="edgeStyle=orthogonalEdgeStyle;rounded=0;orthogonalLoop=1;jettySize=auto;html=1;" edge="1" parent="1" source="dDpDXuMlu2zKfhhWI8P_-44" target="dDpDXuMlu2zKfhhWI8P_-46">
          <mxGeometry relative="1" as="geometry" />
        </mxCell>
        <mxCell id="dDpDXuMlu2zKfhhWI8P_-44" value="规则判断" style="shape=step;perimeter=stepPerimeter;whiteSpace=wrap;html=1;fixedSize=1;" vertex="1" parent="1">
          <mxGeometry x="294" y="-60" width="120" height="60" as="geometry" />
        </mxCell>
        <mxCell id="dDpDXuMlu2zKfhhWI8P_-46" value="触发发放群益" style="shape=step;perimeter=stepPerimeter;whiteSpace=wrap;html=1;fixedSize=1;" vertex="1" parent="1">
          <mxGeometry x="430" y="-60" width="120" height="60" as="geometry" />
        </mxCell>
        <mxCell id="dDpDXuMlu2zKfhhWI8P_-52" value="" style="edgeStyle=orthogonalEdgeStyle;rounded=0;orthogonalLoop=1;jettySize=auto;html=1;" edge="1" parent="1" source="dDpDXuMlu2zKfhhWI8P_-48" target="dDpDXuMlu2zKfhhWI8P_-51">
          <mxGeometry relative="1" as="geometry" />
        </mxCell>
        <mxCell id="dDpDXuMlu2zKfhhWI8P_-48" value="获取实时画像" style="rounded=0;whiteSpace=wrap;html=1;" vertex="1" parent="1">
          <mxGeometry x="300" y="-160" width="50" height="60" as="geometry" />
        </mxCell>
        <mxCell id="dDpDXuMlu2zKfhhWI8P_-50" value="" style="edgeStyle=orthogonalEdgeStyle;rounded=0;orthogonalLoop=1;jettySize=auto;html=1;" edge="1" parent="1" source="dDpDXuMlu2zKfhhWI8P_-49" target="dDpDXuMlu2zKfhhWI8P_-48">
          <mxGeometry relative="1" as="geometry" />
        </mxCell>
        <mxCell id="dDpDXuMlu2zKfhhWI8P_-49" value="需要哪些数据" style="rounded=0;whiteSpace=wrap;html=1;" vertex="1" parent="1">
          <mxGeometry x="230" y="-160" width="50" height="60" as="geometry" />
        </mxCell>
        <mxCell id="dDpDXuMlu2zKfhhWI8P_-54" value="" style="edgeStyle=orthogonalEdgeStyle;rounded=0;orthogonalLoop=1;jettySize=auto;html=1;" edge="1" parent="1" source="dDpDXuMlu2zKfhhWI8P_-51" target="dDpDXuMlu2zKfhhWI8P_-53">
          <mxGeometry relative="1" as="geometry" />
        </mxCell>
        <mxCell id="dDpDXuMlu2zKfhhWI8P_-51" value="规则判断" style="rounded=0;whiteSpace=wrap;html=1;" vertex="1" parent="1">
          <mxGeometry x="370" y="-160" width="50" height="60" as="geometry" />
        </mxCell>
        <mxCell id="dDpDXuMlu2zKfhhWI8P_-53" value="规则判断" style="rounded=0;whiteSpace=wrap;html=1;" vertex="1" parent="1">
          <mxGeometry x="440" y="-160" width="50" height="60" as="geometry" />
        </mxCell>
      </root>
    </mxGraphModel>
  </diagram>
</mxfile>
